<?xml version="1.0" encoding="utf-8" standalone="no"?>
<!DOCTYPE svg PUBLIC "-//W3C//DTD SVG 1.1//EN"
  "http://www.w3.org/Graphics/SVG/1.1/DTD/svg11.dtd">
<!-- Created with matplotlib (https://matplotlib.org/) -->
<svg height="138.46pt" version="1.1" viewBox="0 0 421.4 138.46" width="421.4pt" xmlns="http://www.w3.org/2000/svg" xmlns:xlink="http://www.w3.org/1999/xlink">
 <defs>
  <style type="text/css">
*{stroke-linecap:butt;stroke-linejoin:round;}
  </style>
 </defs>
 <g id="figure_1">
  <g id="patch_1">
   <path d="M 0 138.46 
L 421.4 138.46 
L 421.4 0 
L 0 0 
z
" style="fill:#ffffff;"/>
  </g>
  <g id="axes_1">
   <g id="patch_2">
    <path clip-path="url(#p553bef183d)" d="M 323.68637 88.086898 
L 335.50363 88.086898 
L 329.595 98.427 
z
" style="fill:#778899;"/>
   </g>
   <g id="line2d_1">
    <path clip-path="url(#p553bef183d)" d="M 331.072158 52.976 
L 331.072158 88.086898 
" style="fill:none;stroke:#778899;stroke-linecap:square;"/>
   </g>
   <g id="line2d_2">
    <path clip-path="url(#p553bef183d)" d="M 328.117843 52.976 
L 328.117843 88.086898 
" style="fill:none;stroke:#778899;stroke-linecap:square;"/>
   </g>
   <g id="line2d_3">
    <path clip-path="url(#p553bef183d)" d="M 147.791 52.976 
L 375.046 52.976 
" style="fill:none;stroke:#000000;stroke-linecap:square;"/>
   </g>
   <g id="line2d_4">
    <path clip-path="url(#p553bef183d)" d="M 147.791 96.949843 
L 375.046 96.949843 
" style="fill:none;stroke:#778899;stroke-linecap:square;"/>
   </g>
   <g id="line2d_5">
    <path clip-path="url(#p553bef183d)" d="M 147.791 99.904157 
L 375.046 99.904157 
" style="fill:none;stroke:#778899;stroke-linecap:square;"/>
   </g>
   <g id="patch_3">
    <path clip-path="url(#p553bef183d)" d="M 178.470425 67.747575 
L 208.013575 67.747575 
L 208.013575 38.204425 
L 178.470425 38.204425 
z
" style="fill:#ffffff;stroke:#000000;stroke-linejoin:miter;stroke-width:1.5;"/>
   </g>
   <g id="patch_4">
    <path clip-path="url(#p553bef183d)" d="M 223.921425 67.747575 
L 253.464575 67.747575 
L 253.464575 38.204425 
L 223.921425 38.204425 
z
" style="fill:#ffffff;stroke:#000000;stroke-linejoin:miter;stroke-width:1.5;"/>
   </g>
   <g id="patch_5">
    <path clip-path="url(#p553bef183d)" d="M 269.372425 67.747575 
L 298.915575 67.747575 
L 298.915575 38.204425 
L 269.372425 38.204425 
z
" style="fill:#ffffff;stroke:#000000;stroke-linejoin:miter;stroke-width:1.5;"/>
   </g>
   <g id="patch_6">
    <path clip-path="url(#p553bef183d)" d="M 314.823425 67.747575 
L 344.366575 67.747575 
L 344.366575 38.204425 
L 314.823425 38.204425 
z
" style="fill:#ffffff;stroke:#000000;stroke-linejoin:miter;stroke-width:1.5;"/>
   </g>
   <g id="patch_7">
    <path clip-path="url(#p553bef183d)" d="M 339.935103 57.407472 
C 339.935103 54.666159 338.844958 52.034318 336.906557 50.095916 
C 334.968155 48.157514 332.336314 47.06737 329.595 47.06737 
C 326.853686 47.06737 324.221845 48.157514 322.283443 50.095916 
C 320.345042 52.034318 319.254898 54.666159 319.254898 57.407472 
" style="fill:none;stroke:#000000;stroke-linejoin:miter;stroke-width:1.5;"/>
   </g>
   <g id="line2d_6">
    <path clip-path="url(#p553bef183d)" d="M 329.595 57.407472 
L 339.935103 47.06737 
" style="fill:none;stroke:#000000;stroke-linecap:square;stroke-width:1.5;"/>
   </g>
   <g id="text_1">
    <g clip-path="url(#p553bef183d)">
     <!-- $X$ -->
     <defs>
      <path d="M 13.71875 72.90625 
L 23.6875 72.90625 
L 36.1875 46.578125 
L 58.796875 72.90625 
L 70.3125 72.90625 
L 40.28125 38.09375 
L 58.40625 0 
L 48.484375 0 
L 33.796875 30.71875 
L 7.171875 0 
L -4.296875 0 
L 29.78125 39.203125 
z
" id="DejaVuSans-Oblique-88"/>
     </defs>
     <g transform="translate(188.757 56.563187)scale(0.13 -0.13)">
      <use transform="translate(0 0.09375)" xlink:href="#DejaVuSans-Oblique-88"/>
     </g>
    </g>
   </g>
   <g id="text_2">
    <g clip-path="url(#p553bef183d)">
     <!-- $H$ -->
     <defs>
      <path d="M 16.890625 72.90625 
L 26.8125 72.90625 
L 21 43.015625 
L 56.78125 43.015625 
L 62.59375 72.90625 
L 72.515625 72.90625 
L 58.296875 0 
L 48.390625 0 
L 55.171875 34.71875 
L 19.390625 34.71875 
L 12.59375 0 
L 2.6875 0 
z
" id="DejaVuSans-Oblique-72"/>
     </defs>
     <g transform="translate(233.753 56.563187)scale(0.13 -0.13)">
      <use transform="translate(0 0.09375)" xlink:href="#DejaVuSans-Oblique-72"/>
     </g>
    </g>
   </g>
   <g id="text_3">
    <g clip-path="url(#p553bef183d)">
     <!-- $X$ -->
     <g transform="translate(279.659 56.563187)scale(0.13 -0.13)">
      <use transform="translate(0 0.09375)" xlink:href="#DejaVuSans-Oblique-88"/>
     </g>
    </g>
   </g>
   <g id="text_4">
    <g clip-path="url(#p553bef183d)">
     <!-- $q$ : $\left|0\right\rangle$ -->
     <defs>
      <path d="M 41.703125 8.203125 
Q 38.09375 3.46875 33.171875 1.015625 
Q 28.265625 -1.421875 22.3125 -1.421875 
Q 14.015625 -1.421875 9.296875 4.171875 
Q 4.59375 9.765625 4.59375 19.578125 
Q 4.59375 27.484375 7.5 34.859375 
Q 10.40625 42.234375 15.828125 48.09375 
Q 19.34375 51.90625 23.90625 53.953125 
Q 28.46875 56 33.5 56 
Q 39.546875 56 43.453125 53.609375 
Q 47.359375 51.21875 49.125 46.390625 
L 50.6875 54.59375 
L 59.71875 54.59375 
L 45.125 -20.609375 
L 36.078125 -20.609375 
z
M 13.921875 20.90625 
Q 13.921875 13.671875 16.9375 9.890625 
Q 19.96875 6.109375 25.6875 6.109375 
Q 34.1875 6.109375 40.1875 14.234375 
Q 46.1875 22.359375 46.1875 33.984375 
Q 46.1875 41.015625 43.078125 44.75 
Q 39.984375 48.484375 34.1875 48.484375 
Q 29.9375 48.484375 26.3125 46.5 
Q 22.703125 44.53125 20.015625 40.71875 
Q 17.1875 36.71875 15.546875 31.34375 
Q 13.921875 25.984375 13.921875 20.90625 
z
" id="DejaVuSans-Oblique-113"/>
      <path id="DejaVuSans-32"/>
      <path d="M 11.71875 12.40625 
L 22.015625 12.40625 
L 22.015625 0 
L 11.71875 0 
z
M 11.71875 51.703125 
L 22.015625 51.703125 
L 22.015625 39.3125 
L 11.71875 39.3125 
z
" id="DejaVuSans-58"/>
      <path d="M 21 76.421875 
L 21 -23.578125 
L 12.703125 -23.578125 
L 12.703125 76.421875 
z
" id="DejaVuSans-124"/>
      <path d="M 31.78125 66.40625 
Q 24.171875 66.40625 20.328125 58.90625 
Q 16.5 51.421875 16.5 36.375 
Q 16.5 21.390625 20.328125 13.890625 
Q 24.171875 6.390625 31.78125 6.390625 
Q 39.453125 6.390625 43.28125 13.890625 
Q 47.125 21.390625 47.125 36.375 
Q 47.125 51.421875 43.28125 58.90625 
Q 39.453125 66.40625 31.78125 66.40625 
z
M 31.78125 74.21875 
Q 44.046875 74.21875 50.515625 64.515625 
Q 56.984375 54.828125 56.984375 36.375 
Q 56.984375 17.96875 50.515625 8.265625 
Q 44.046875 -1.421875 31.78125 -1.421875 
Q 19.53125 -1.421875 13.0625 8.265625 
Q 6.59375 17.96875 6.59375 36.375 
Q 6.59375 54.828125 13.0625 64.515625 
Q 19.53125 74.21875 31.78125 74.21875 
z
" id="DejaVuSans-48"/>
      <path d="M 30.078125 31.34375 
L 16.3125 -13.1875 
L 8.015625 -13.1875 
L 21.78125 31.34375 
L 8.015625 75.875 
L 16.3125 75.875 
z
" id="DejaVuSans-10217"/>
     </defs>
     <g transform="translate(86.3255 56.421)scale(0.13 -0.13)">
      <use transform="translate(0 0.578125)" xlink:href="#DejaVuSans-Oblique-113"/>
      <use transform="translate(63.476562 0.578125)" xlink:href="#DejaVuSans-32"/>
      <use transform="translate(95.263672 0.578125)" xlink:href="#DejaVuSans-58"/>
      <use transform="translate(128.955078 0.578125)" xlink:href="#DejaVuSans-32"/>
      <use transform="translate(160.742188 0.578125)" xlink:href="#DejaVuSans-124"/>
      <use transform="translate(194.433594 0.578125)" xlink:href="#DejaVuSans-48"/>
      <use transform="translate(258.056641 0.578125)" xlink:href="#DejaVuSans-10217"/>
     </g>
    </g>
   </g>
   <g id="text_5">
    <g clip-path="url(#p553bef183d)">
     <!-- $c_{0}$ :  0  -->
     <defs>
      <path d="M 53.609375 52.59375 
L 51.8125 43.703125 
Q 48.578125 46.046875 44.9375 47.21875 
Q 41.3125 48.390625 37.40625 48.390625 
Q 33.109375 48.390625 29.21875 46.875 
Q 25.34375 45.359375 22.703125 42.578125 
Q 18.5 38.328125 16.203125 32.609375 
Q 13.921875 26.90625 13.921875 20.796875 
Q 13.921875 13.421875 17.609375 9.8125 
Q 21.296875 6.203125 28.8125 6.203125 
Q 32.515625 6.203125 36.6875 7.328125 
Q 40.875 8.453125 45.40625 10.6875 
L 43.703125 1.8125 
Q 39.796875 0.203125 35.671875 -0.609375 
Q 31.546875 -1.421875 27.203125 -1.421875 
Q 16.3125 -1.421875 10.453125 4.015625 
Q 4.59375 9.46875 4.59375 19.578125 
Q 4.59375 28.078125 7.640625 35.234375 
Q 10.6875 42.390625 16.703125 48.09375 
Q 20.796875 52 26.3125 54 
Q 31.84375 56 38.375 56 
Q 42.1875 56 45.9375 55.140625 
Q 49.703125 54.296875 53.609375 52.59375 
z
" id="DejaVuSans-Oblique-99"/>
     </defs>
     <g transform="translate(82.5555 102.014188)scale(0.13 -0.13)">
      <use transform="translate(0 0.78125)" xlink:href="#DejaVuSans-Oblique-99"/>
      <use transform="translate(54.980469 -15.625)scale(0.7)" xlink:href="#DejaVuSans-48"/>
      <use transform="translate(102.250977 0.78125)" xlink:href="#DejaVuSans-32"/>
      <use transform="translate(134.038086 0.78125)" xlink:href="#DejaVuSans-58"/>
      <use transform="translate(167.729492 0.78125)" xlink:href="#DejaVuSans-32"/>
      <use transform="translate(199.516602 0.78125)" xlink:href="#DejaVuSans-32"/>
      <use transform="translate(231.303711 0.78125)" xlink:href="#DejaVuSans-48"/>
      <use transform="translate(294.926758 0.78125)" xlink:href="#DejaVuSans-32"/>
     </g>
    </g>
   </g>
  </g>
 </g>
 <defs>
  <clipPath id="p553bef183d">
   <rect height="104.5373" width="318.157" x="56.889" y="16.6152"/>
  </clipPath>
 </defs>
</svg>
